<svg id="Layer_1" data-name="Layer 1" xmlns="http://www.w3.org/2000/svg" viewBox="0 0 841.89 595.28"><defs><style>.cls-1{fill:none;stroke-width:4px;}.cls-1,.cls-5{stroke:#e52321;}.cls-2{font-size:11px;}.cls-2,.cls-3,.cls-6{fill:#1d1d1b;font-family:Roboto-Medium, Roboto;font-weight:500;}.cls-3,.cls-6{font-size:8px;}.cls-4,.cls-5{fill:#fff;}.cls-4{stroke:#1d1e1b;stroke-width:2px;}.cls-6{letter-spacing:-0.01em;}</style></defs><title>Artboard 1</title><line class="cls-1" x1="325.85" y1="280.23" x2="532.37" y2="280.23"/><text class="cls-2" transform="translate(349.88 273.81) rotate(-45)">Forventninger</text><text class="cls-2" transform="translate(392.14 273.81) rotate(-45)">Realitetstjek</text><text class="cls-2" transform="translate(482.93 273.81) rotate(-45)">Beslutning og tilsagn</text><text class="cls-3" transform="translate(443.5 274.34) rotate(-45)">Bank</text><circle class="cls-4" cx="480.88" cy="280.4" r="4.1"/><text class="cls-2" transform="translate(509.23 274.06) rotate(-45)">Køb</text><circle class="cls-4" cx="507.17" cy="280.65" r="4.1"/><text class="cls-2" transform="translate(534.43 274.06) rotate(-45)">Indflytning og drift</text><circle class="cls-4" cx="532.37" cy="280.65" r="4.1"/><circle class="cls-4" cx="390.08" cy="280.4" r="4.1"/><circle class="cls-4" cx="347.83" cy="280.4" r="4.1"/><circle class="cls-5" cx="442.45" cy="280.4" r="3.31"/><text class="cls-3" transform="translate(460.57 274.34) rotate(-45)">Markedsresearch</text><circle class="cls-5" cx="459.52" cy="280.4" r="3.31"/><text class="cls-3" transform="translate(411.58 274.34) rotate(-45)">Budget</text><circle class="cls-5" cx="410.53" cy="280.4" r="3.31"/><text class="cls-3" transform="translate(427.65 274.34) rotate(-45)">Advokathjælp</text><circle class="cls-5" cx="426.6" cy="280.4" r="3.31"/><text class="cls-6" transform="translate(369.19 274.34) rotate(-45)">Genforhandling / reboot?</text><circle class="cls-5" cx="369.13" cy="280.4" r="3.31"/><text class="cls-6" transform="translate(325.9 274.34) rotate(-45)">Køreplan</text><circle class="cls-5" cx="325.85" cy="280.4" r="3.31"/></svg>