<svg id="Layer_1" data-name="Layer 1" xmlns="http://www.w3.org/2000/svg" viewBox="0 0 276.41 88.22"><defs><style>.cls-1{fill:none;stroke-width:4px;}.cls-1,.cls-4{stroke:#e52321;}.cls-2,.cls-5{fill:#1d1d1b;}.cls-3,.cls-4{fill:#fff;}.cls-3{stroke:#1d1e1b;stroke-width:2px;}.cls-5{stroke:#1d1d1b;}</style></defs><title>map</title><line class="cls-1" x1="3.81" y1="82.7" x2="210.33" y2="82.7"/><path class="cls-2" d="M351.29,267.72l-2.23,2.22,2.35,2.34-1,1-5.53-5.53,3.51-3.52.77.78-2.55,2.55,1.65,1.64,2.22-2.22Z" transform="translate(-322.04 -197.53)"/><path class="cls-2" d="M352.36,267.14a3.37,3.37,0,0,1-.84-1.32,2.48,2.48,0,0,1-.08-1.42,2.74,2.74,0,0,1,.74-1.26,2.54,2.54,0,0,1,1.88-.81,3,3,0,0,1,2,.86l.22.21a3.58,3.58,0,0,1,.86,1.32,2.52,2.52,0,0,1,.07,1.41,2.77,2.77,0,0,1-.74,1.27,2.51,2.51,0,0,1-2,.81,3.15,3.15,0,0,1-2.07-1Zm1-.84a2.32,2.32,0,0,0,1.25.73,1.22,1.22,0,0,0,1.09-.37,1.19,1.19,0,0,0,.36-1.09,2.63,2.63,0,0,0-.8-1.33,2.42,2.42,0,0,0-1.26-.72,1.27,1.27,0,0,0-1.45,1.44A2.51,2.51,0,0,0,353.37,266.3Z" transform="translate(-322.04 -197.53)"/><path class="cls-2" d="M357.94,259.22a3.14,3.14,0,0,0-.4.34,1.18,1.18,0,0,0-.37,1.34l2.81,2.81-.92.93L355,260.53l.88-.88.48.43a1.48,1.48,0,0,1,.39-1.46,1.22,1.22,0,0,1,.38-.27Z" transform="translate(-322.04 -197.53)"/><path class="cls-2" d="M362.07,259.28,360,255.47l1-.95,2.68,5.53-.8.8-5.55-2.67,1-1Z" transform="translate(-322.04 -197.53)"/><path class="cls-2" d="M367.53,256.32a2.76,2.76,0,0,1-2,.87,2.89,2.89,0,0,1-2-.93l-.11-.11a3.45,3.45,0,0,1-.86-1.34,2.5,2.5,0,0,1,.6-2.65,2.28,2.28,0,0,1,1.83-.76,3.2,3.2,0,0,1,2,1.06l.38.37-2.69,2.69a1.76,1.76,0,0,0,1.15.46,1.43,1.43,0,0,0,1-.45,1.74,1.74,0,0,0,.52-1.55l1,0a2.25,2.25,0,0,1-.08,1.23A2.94,2.94,0,0,1,367.53,256.32Zm-3.64-3.41a1.1,1.1,0,0,0-.34.88,2,2,0,0,0,.44,1l1.76-1.76-.07-.07a1.54,1.54,0,0,0-.95-.45A1.07,1.07,0,0,0,363.89,252.91Z" transform="translate(-322.04 -197.53)"/><path class="cls-2" d="M366.56,248.91l.5.45a2.1,2.1,0,0,1,.65-1.75c.85-.85,1.78-.8,2.77.17l2.72,2.71-.92.93-2.66-2.67a1.23,1.23,0,0,0-.75-.41,1,1,0,0,0-.74.37,1.23,1.23,0,0,0-.33,1.33l2.92,2.93-.92.92-4.11-4.11Z" transform="translate(-322.04 -197.53)"/><path class="cls-2" d="M370.19,243.29l1,1,.72-.73.69.68-.73.73,2.29,2.29a.74.74,0,0,0,.44.25.61.61,0,0,0,.44-.23,1.72,1.72,0,0,0,.28-.36l.71.72a3,3,0,0,1-.52.69,1.4,1.4,0,0,1-2.23-.11L371,245.89l-.68.68-.68-.68.67-.68-1-1Z" transform="translate(-322.04 -197.53)"/><path class="cls-2" d="M373.47,242l.5.45a2.12,2.12,0,0,1,.65-1.75c.86-.85,1.78-.8,2.78.16l2.71,2.72-.92.92-2.66-2.66a1.18,1.18,0,0,0-.75-.41,1,1,0,0,0-.74.37,1.26,1.26,0,0,0-.33,1.33l2.93,2.93-.93.92-4.11-4.11Z" transform="translate(-322.04 -197.53)"/><path class="cls-2" d="M375.88,237.46a.68.68,0,0,1-.22-.49.74.74,0,0,1,.24-.52.75.75,0,0,1,.53-.25.68.68,0,0,1,.49.22.66.66,0,0,1,.21.48.75.75,0,0,1-.25.53.7.7,0,0,1-.52.24A.66.66,0,0,1,375.88,237.46Zm6.15,4.2-.92.92L377,238.47l.92-.92Z" transform="translate(-322.04 -197.53)"/><path class="cls-2" d="M379.79,235.69l.5.45a2.07,2.07,0,0,1,.64-1.75c.86-.86,1.78-.8,2.78.16l2.71,2.72-.92.92-2.66-2.66a1.18,1.18,0,0,0-.75-.41,1,1,0,0,0-.74.36,1.28,1.28,0,0,0-.33,1.34l2.93,2.92-.92.93-4.11-4.11Z" transform="translate(-322.04 -197.53)"/><path class="cls-2" d="M385.12,234.4a3.34,3.34,0,0,1-1.08-2,2.05,2.05,0,0,1,.62-1.76,1.94,1.94,0,0,1,1.6-.62l-.38-.45.84-.83,4,4a2.31,2.31,0,0,1,.77,1.78,2.66,2.66,0,0,1-.89,1.82,3,3,0,0,1-1.07.7,2.14,2.14,0,0,1-1.14.16l-.12-1a1.85,1.85,0,0,0,1.55-.54,1.43,1.43,0,0,0,.48-1,1.35,1.35,0,0,0-.47-1l-.27-.28a2,2,0,0,1-.62,1.51,2,2,0,0,1-1.76.6A3.44,3.44,0,0,1,385.12,234.4Zm1-.83a2.36,2.36,0,0,0,1.22.72,1.15,1.15,0,0,0,1.06-.35,1.26,1.26,0,0,0,.35-1.31l-1.81-1.8a1.25,1.25,0,0,0-1.29.35,1.14,1.14,0,0,0-.34,1.07A2.6,2.6,0,0,0,386.12,233.57Z" transform="translate(-322.04 -197.53)"/><path class="cls-2" d="M393.66,230.18a2.67,2.67,0,0,1-2,.87,2.8,2.8,0,0,1-2-.92l-.12-.12a3.53,3.53,0,0,1-.86-1.33,2.66,2.66,0,0,1-.09-1.42,2.52,2.52,0,0,1,.69-1.23,2.29,2.29,0,0,1,1.84-.76,3.18,3.18,0,0,1,2,1.06l.37.37-2.68,2.68a1.73,1.73,0,0,0,1.14.47,1.43,1.43,0,0,0,1.05-.46,1.78,1.78,0,0,0,.52-1.54l1,0a2.35,2.35,0,0,1-.09,1.23A2.9,2.9,0,0,1,393.66,230.18ZM390,226.77a1.13,1.13,0,0,0-.35.88,1.94,1.94,0,0,0,.44,1l1.76-1.76-.07-.07a1.6,1.6,0,0,0-.94-.45A1.12,1.12,0,0,0,390,226.77Z" transform="translate(-322.04 -197.53)"/><path class="cls-2" d="M394.83,222.33a3.14,3.14,0,0,0-.4.34,1.18,1.18,0,0,0-.37,1.34l2.81,2.81-.92.93-4.11-4.11.88-.88.48.43a1.49,1.49,0,0,1,.39-1.46,1.22,1.22,0,0,1,.38-.27Z" transform="translate(-322.04 -197.53)"/><path class="cls-2" d="M392.6,269.09l-1.07,1.07,2.13,2.12-1,1-5.53-5.53,1.94-2a3.21,3.21,0,0,1,1.91-1,2.13,2.13,0,0,1,1.76.73,2.25,2.25,0,0,1,.67,1.19,2.5,2.5,0,0,1-.17,1.33l3.54,1.06.05.05-1,1Zm-1.84.29,1-1a1.58,1.58,0,0,0,.51-1,1.18,1.18,0,0,0-.4-.94,1.29,1.29,0,0,0-.94-.44,1.54,1.54,0,0,0-1,.51l-1,1Z" transform="translate(-322.04 -197.53)"/><path class="cls-2" d="M399.35,266.75a2.74,2.74,0,0,1-2,.87,2.85,2.85,0,0,1-2-.93l-.12-.11a3.45,3.45,0,0,1-.86-1.34,2.66,2.66,0,0,1-.09-1.42,2.52,2.52,0,0,1,.69-1.23,2.28,2.28,0,0,1,1.83-.76,3.18,3.18,0,0,1,2,1.06l.37.37L396.47,266a1.76,1.76,0,0,0,1.15.46,1.46,1.46,0,0,0,1.05-.45,1.81,1.81,0,0,0,.52-1.55l1,0a2.35,2.35,0,0,1-.09,1.23A2.94,2.94,0,0,1,399.35,266.75Zm-3.63-3.41a1.07,1.07,0,0,0-.35.88,1.91,1.91,0,0,0,.44,1l1.76-1.75-.07-.07a1.62,1.62,0,0,0-.95-.46A1.08,1.08,0,0,0,395.72,263.34Z" transform="translate(-322.04 -197.53)"/><path class="cls-2" d="M404.09,261.85a2,2,0,0,1-.49-.28,2,2,0,0,1-.62,1.54,2,2,0,0,1-1.36.66,1.58,1.58,0,0,1-1.26-.48,1.66,1.66,0,0,1-.53-1.5,3.41,3.41,0,0,1,1.05-1.75l.57-.56-.27-.27a1,1,0,0,0-.69-.33,1,1,0,0,0-.74.35,1.15,1.15,0,0,0-.36.67.69.69,0,0,0,.2.6l-.92.93a1.45,1.45,0,0,1-.41-.86,2,2,0,0,1,.15-1.07,3.06,3.06,0,0,1,.69-1,2.48,2.48,0,0,1,1.52-.79,1.86,1.86,0,0,1,1.46.58l1.85,1.86a2.88,2.88,0,0,0,1,.72l.07.07Zm-1.68.35a1.39,1.39,0,0,0,.38-.65,1.18,1.18,0,0,0,0-.72l-.77-.77-.5.5a1.87,1.87,0,0,0-.59.95.79.79,0,0,0,.24.76.77.77,0,0,0,.6.25A1,1,0,0,0,402.41,262.2Z" transform="translate(-322.04 -197.53)"/><path class="cls-2" d="M406.83,259.12l-.93.92-5.83-5.83.92-.93Z" transform="translate(-322.04 -197.53)"/><path class="cls-2" d="M402.66,252.93a.64.64,0,0,1-.22-.48.72.72,0,0,1,.24-.53.75.75,0,0,1,.53-.25.72.72,0,0,1,.49.22.66.66,0,0,1,.21.48.73.73,0,0,1-.25.53.65.65,0,0,1-1,0Zm6.15,4.2-.92.92-4.11-4.11.92-.92Z" transform="translate(-322.04 -197.53)"/><path class="cls-2" d="M405.87,249.86l1,1,.72-.72.68.68-.72.72,2.29,2.3a.7.7,0,0,0,.44.24.58.58,0,0,0,.43-.22,2.54,2.54,0,0,0,.29-.36l.71.71a2.84,2.84,0,0,1-.52.69,1.41,1.41,0,0,1-2.24-.1l-2.32-2.33-.68.67-.68-.68.67-.68-1-1Z" transform="translate(-322.04 -197.53)"/><path class="cls-2" d="M414.29,251.81a2.73,2.73,0,0,1-2,.87,2.85,2.85,0,0,1-2-.93l-.12-.11a3.57,3.57,0,0,1-.86-1.34,2.66,2.66,0,0,1-.09-1.42,2.52,2.52,0,0,1,.69-1.23,2.28,2.28,0,0,1,1.83-.76,3.18,3.18,0,0,1,2,1.06l.37.37L411.42,251a1.72,1.72,0,0,0,1.14.46,1.46,1.46,0,0,0,1.05-.45,1.81,1.81,0,0,0,.52-1.55l1,0a2.35,2.35,0,0,1-.09,1.23A3,3,0,0,1,414.29,251.81Zm-3.63-3.41a1.1,1.1,0,0,0-.35.87,1.94,1.94,0,0,0,.44,1l1.76-1.76-.07-.06a1.59,1.59,0,0,0-.94-.46A1.1,1.1,0,0,0,410.66,248.4Z" transform="translate(-322.04 -197.53)"/><path class="cls-2" d="M412.63,243.1l1,1,.72-.73.69.69-.73.72,2.29,2.3a.7.7,0,0,0,.44.24.58.58,0,0,0,.43-.22,2.54,2.54,0,0,0,.29-.36l.71.71a2.84,2.84,0,0,1-.52.69,1.4,1.4,0,0,1-2.24-.11l-2.32-2.32-.68.67-.68-.68.67-.68-1-1Z" transform="translate(-322.04 -197.53)"/><path class="cls-2" d="M420.35,243.36a.58.58,0,0,0-.58-.17,3,3,0,0,0-.9.44,5,5,0,0,1-1,.54,1.49,1.49,0,0,1-1.66-.28,1.56,1.56,0,0,1-.44-1.34,2.47,2.47,0,0,1,.79-1.49,2.62,2.62,0,0,1,1.55-.83,1.65,1.65,0,0,1,1.4.49l-.92.93a.82.82,0,0,0-.64-.25,1.07,1.07,0,0,0-.7.35,1.14,1.14,0,0,0-.36.63.62.62,0,0,0,.19.57.53.53,0,0,0,.5.16,3.87,3.87,0,0,0,1-.49,5.21,5.21,0,0,1,1.14-.57,1.85,1.85,0,0,1,.86-.06,1.48,1.48,0,0,1,.71.41,1.51,1.51,0,0,1,.44,1.36,2.83,2.83,0,0,1-.86,1.55,3.29,3.29,0,0,1-1.08.72,2.09,2.09,0,0,1-1.12.11,1.7,1.7,0,0,1-.91-.47l.9-.89a.91.91,0,0,0,.75.25,1.32,1.32,0,0,0,.78-.42,1.33,1.33,0,0,0,.41-.7A.58.58,0,0,0,420.35,243.36Z" transform="translate(-322.04 -197.53)"/><path class="cls-2" d="M419.23,236.5l1,1,.72-.73.68.69-.72.72,2.29,2.3a.7.7,0,0,0,.44.24.58.58,0,0,0,.43-.22,1.76,1.76,0,0,0,.29-.37l.71.72a2.84,2.84,0,0,1-.52.69,1.4,1.4,0,0,1-2.24-.11L420,239.11l-.68.67-.68-.68.67-.68-1-1Z" transform="translate(-322.04 -197.53)"/><path class="cls-2" d="M420.55,235a.68.68,0,0,1-.22-.49.87.87,0,0,1,.77-.77.68.68,0,0,1,.49.22.66.66,0,0,1,.21.48.72.72,0,0,1-.24.53.74.74,0,0,1-.53.24A.66.66,0,0,1,420.55,235Zm2.07.07,4.47,4.47a1.91,1.91,0,0,1,.65,1.28,1.69,1.69,0,0,1-.58,1.25,2.49,2.49,0,0,1-.56.42l-.73-.73a1.83,1.83,0,0,0,.36-.29.61.61,0,0,0,0-1L421.7,236Z" transform="translate(-322.04 -197.53)"/><path class="cls-2" d="M429.6,236.5a2.74,2.74,0,0,1-2,.87,2.86,2.86,0,0,1-2-.93l-.12-.11a3.57,3.57,0,0,1-.86-1.34,2.66,2.66,0,0,1-.09-1.42,2.52,2.52,0,0,1,.69-1.23,2.28,2.28,0,0,1,1.83-.76,3.18,3.18,0,0,1,2,1.06l.37.37-2.69,2.69a1.76,1.76,0,0,0,1.15.46,1.46,1.46,0,0,0,1.05-.45,1.81,1.81,0,0,0,.52-1.55l1,0a2.35,2.35,0,0,1-.09,1.23A3,3,0,0,1,429.6,236.5ZM426,233.09a1.1,1.1,0,0,0-.35.87,1.94,1.94,0,0,0,.44,1l1.76-1.75-.07-.07a1.62,1.62,0,0,0-.94-.46A1.08,1.08,0,0,0,426,233.09Z" transform="translate(-322.04 -197.53)"/><path class="cls-2" d="M431.46,231v.83l1.34,1.34-.92.92-5.83-5.83.92-.92,3.36,3.36-.07-.65-.14-2.41,1.11-1.11.18,3.24,4.09.71-1.07,1.06Z" transform="translate(-322.04 -197.53)"/><path class="cls-2" d="M483.49,273.25,478,267.72l1.9-1.9a3.29,3.29,0,0,1,1.8-1.05,1.84,1.84,0,0,1,1.61.63,1.6,1.6,0,0,1,.48.89,1.77,1.77,0,0,1-.13,1.07,1.73,1.73,0,0,1,1.15-.24,1.89,1.89,0,0,1,1.06.57,2,2,0,0,1,.69,1.69,3.05,3.05,0,0,1-1,1.85Zm-2.24-4.17.95-.94a1.56,1.56,0,0,0,.49-.9,1,1,0,0,0-.32-.83,1,1,0,0,0-.83-.36,1.68,1.68,0,0,0-.91.55l-.93.93Zm.71.71,1.73,1.73,1.06-1.07a1.43,1.43,0,0,0,.49-.93,1.14,1.14,0,0,0-.37-.88,1.12,1.12,0,0,0-1.76,0Z" transform="translate(-322.04 -197.53)"/><path class="cls-2" d="M490.2,266.69a2.67,2.67,0,0,1-2,.87,2.8,2.8,0,0,1-2-.92l-.12-.12a3.41,3.41,0,0,1-.86-1.33,2.66,2.66,0,0,1-.09-1.42,2.52,2.52,0,0,1,.69-1.23,2.28,2.28,0,0,1,1.83-.76,3.2,3.2,0,0,1,2,1.06l.37.37-2.69,2.68a1.78,1.78,0,0,0,1.15.47,1.41,1.41,0,0,0,1-.46,1.72,1.72,0,0,0,.52-1.54l1,0a2.35,2.35,0,0,1-.09,1.23A2.9,2.9,0,0,1,490.2,266.69Zm-3.63-3.41a1.1,1.1,0,0,0-.35.88,1.94,1.94,0,0,0,.44,1l1.76-1.76-.07-.07a1.6,1.6,0,0,0-1-.45A1.1,1.1,0,0,0,486.57,263.28Z" transform="translate(-322.04 -197.53)"/><path class="cls-2" d="M493.67,260.83a.59.59,0,0,0-.58-.17,3.07,3.07,0,0,0-.9.45,4.65,4.65,0,0,1-1,.53,1.47,1.47,0,0,1-1.65-.27,1.55,1.55,0,0,1-.45-1.34,2.57,2.57,0,0,1,.79-1.5,2.61,2.61,0,0,1,1.55-.82,1.63,1.63,0,0,1,1.4.49l-.92.92a.77.77,0,0,0-.64-.24,1.08,1.08,0,0,0-.7.34,1.27,1.27,0,0,0-.36.64.64.64,0,0,0,.19.57.53.53,0,0,0,.51.15,3.51,3.51,0,0,0,1-.49,4.67,4.67,0,0,1,1.13-.56,1.74,1.74,0,0,1,.86-.07,1.6,1.6,0,0,1,1.15,1.77,2.74,2.74,0,0,1-.86,1.55,3,3,0,0,1-1.08.72,2.09,2.09,0,0,1-1.12.11,1.69,1.69,0,0,1-.91-.46l.9-.9a.92.92,0,0,0,.75.26,1.4,1.4,0,0,0,.78-.43,1.37,1.37,0,0,0,.42-.69A.63.63,0,0,0,493.67,260.83Z" transform="translate(-322.04 -197.53)"/><path class="cls-2" d="M497.48,259.26l-.92.92-5.83-5.83.92-.93Z" transform="translate(-322.04 -197.53)"/><path class="cls-2" d="M500.57,255.36a2,2,0,0,1-.67,1.63,1.78,1.78,0,0,1-1.41.62,2.33,2.33,0,0,1-1.47-.78l-2.66-2.67.92-.92,2.65,2.65c.52.52,1,.57,1.43.14a1.3,1.3,0,0,0,.43-1.39l-3-3,.92-.92,4.11,4.11-.87.87Z" transform="translate(-322.04 -197.53)"/><path class="cls-2" d="M498.86,247.67l1,1,.72-.73.69.68-.73.73,2.29,2.29a.72.72,0,0,0,.44.25.59.59,0,0,0,.43-.23,1.76,1.76,0,0,0,.29-.36l.71.71a3.11,3.11,0,0,1-.52.7,1.4,1.4,0,0,1-2.23-.11l-2.33-2.33-.68.68-.68-.69.67-.67-1-1Z" transform="translate(-322.04 -197.53)"/><path class="cls-2" d="M502.14,246.38l.5.45a2.09,2.09,0,0,1,.65-1.75c.85-.86,1.78-.8,2.78.16l2.71,2.72-.92.92-2.66-2.66a1.18,1.18,0,0,0-.75-.41,1,1,0,0,0-.74.36,1.26,1.26,0,0,0-.33,1.34l2.92,2.93-.92.92-4.11-4.11Z" transform="translate(-322.04 -197.53)"/><path class="cls-2" d="M504.55,241.84a.64.64,0,0,1-.22-.49.7.7,0,0,1,.24-.52.75.75,0,0,1,.53-.25.64.64,0,0,1,.49.22.66.66,0,0,1,.21.48.75.75,0,0,1-.25.53.7.7,0,0,1-.52.24A.66.66,0,0,1,504.55,241.84Zm6.15,4.2-.92.92-4.11-4.11.92-.92Z" transform="translate(-322.04 -197.53)"/><path class="cls-2" d="M508.46,240.07l.5.44a2.06,2.06,0,0,1,.64-1.74c.86-.86,1.78-.8,2.78.16l2.71,2.72-.92.92-2.66-2.66a1.18,1.18,0,0,0-.75-.41,1,1,0,0,0-.74.36,1.28,1.28,0,0,0-.33,1.34l2.93,2.92-.93.93-4.11-4.11Z" transform="translate(-322.04 -197.53)"/><path class="cls-2" d="M513.79,238.78a3.37,3.37,0,0,1-1.08-2,2,2,0,0,1,.62-1.76,1.91,1.91,0,0,1,1.6-.62l-.38-.45.84-.83,4,4a2.31,2.31,0,0,1,.77,1.78,2.67,2.67,0,0,1-.89,1.82,3,3,0,0,1-1.07.7,2.16,2.16,0,0,1-1.15.16l-.11-1a1.89,1.89,0,0,0,1.55-.54,1.43,1.43,0,0,0,.48-1,1.35,1.35,0,0,0-.47-1l-.28-.28a1.92,1.92,0,0,1-.62,1.51,2,2,0,0,1-1.75.6A3.41,3.41,0,0,1,513.79,238.78Zm1-.84a2.32,2.32,0,0,0,1.22.73,1.17,1.17,0,0,0,1.06-.35,1.26,1.26,0,0,0,.35-1.31l-1.81-1.8a1.24,1.24,0,0,0-1.29.35,1.17,1.17,0,0,0-.35,1.07A2.64,2.64,0,0,0,514.79,237.94Z" transform="translate(-322.04 -197.53)"/><path class="cls-2" d="M520.11,232.44a3.4,3.4,0,0,1-.84-1.33,2.44,2.44,0,0,1-.08-1.41,2.69,2.69,0,0,1,.74-1.26,2.5,2.5,0,0,1,1.88-.81,2.9,2.9,0,0,1,2,.86l.22.21a3.42,3.42,0,0,1,.86,1.32,2.51,2.51,0,0,1,.07,1.41,2.69,2.69,0,0,1-.74,1.26,2.52,2.52,0,0,1-2,.82,3.15,3.15,0,0,1-2.07-1Zm1-.84a2.39,2.39,0,0,0,1.25.73,1.22,1.22,0,0,0,1.09-.37,1.19,1.19,0,0,0,.36-1.09,2.63,2.63,0,0,0-.8-1.33,2.29,2.29,0,0,0-1.26-.72,1.27,1.27,0,0,0-1.45,1.44A2.55,2.55,0,0,0,521.12,231.6Z" transform="translate(-322.04 -197.53)"/><path class="cls-2" d="M524.56,228a3.4,3.4,0,0,1-1.08-2,2.05,2.05,0,0,1,.63-1.77,1.92,1.92,0,0,1,1.59-.61l-.37-.46.83-.83,4,4a2.37,2.37,0,0,1,.78,1.78A2.74,2.74,0,0,1,530,230a3.08,3.08,0,0,1-1.07.69,2.2,2.2,0,0,1-1.15.17l-.12-1a1.85,1.85,0,0,0,1.55-.55,1.41,1.41,0,0,0,.48-1,1.36,1.36,0,0,0-.46-1L529,227a1.92,1.92,0,0,1-.62,1.51,2.07,2.07,0,0,1-1.75.61A3.57,3.57,0,0,1,524.56,228Zm1-.84a2.34,2.34,0,0,0,1.23.72,1.14,1.14,0,0,0,1.05-.35,1.25,1.25,0,0,0,.35-1.3l-1.81-1.81a1.22,1.22,0,0,0-1.28.35,1.15,1.15,0,0,0-.35,1.07A2.6,2.6,0,0,0,525.56,227.17Z" transform="translate(-322.04 -197.53)"/><path class="cls-2" d="M529.2,217.32l1,1,.73-.73.68.69-.73.72,2.3,2.3a.7.7,0,0,0,.43.24.59.59,0,0,0,.44-.22,1.93,1.93,0,0,0,.28-.36l.72.71a3.12,3.12,0,0,1-.52.69,1.4,1.4,0,0,1-2.24-.11L530,219.93l-.67.67-.69-.68.68-.68-1-1Z" transform="translate(-322.04 -197.53)"/><path class="cls-2" d="M530.57,215.82a.64.64,0,0,1-.22-.49.7.7,0,0,1,.24-.52.75.75,0,0,1,.53-.25.74.74,0,0,1,.7.7.75.75,0,0,1-.25.53.7.7,0,0,1-.52.24A.66.66,0,0,1,530.57,215.82Zm6.15,4.2-.92.92-4.11-4.11.92-.92Z" transform="translate(-322.04 -197.53)"/><path class="cls-2" d="M538.71,218l-.92.92L532,213.12l.93-.92Z" transform="translate(-322.04 -197.53)"/><path class="cls-2" d="M540.9,213.61a.58.58,0,0,0-.58-.18,3.07,3.07,0,0,0-.9.45,5,5,0,0,1-1,.54,1.51,1.51,0,0,1-1.66-.28,1.57,1.57,0,0,1-.44-1.34,2.53,2.53,0,0,1,.78-1.5,2.63,2.63,0,0,1,1.56-.82,1.63,1.63,0,0,1,1.4.49l-.92.92a.81.81,0,0,0-.64-.24,1,1,0,0,0-.7.35,1.14,1.14,0,0,0-.36.63.66.66,0,0,0,.18.57.55.55,0,0,0,.51.15,3.42,3.42,0,0,0,1-.48,5,5,0,0,1,1.14-.57,1.62,1.62,0,0,1,.86-.06,1.41,1.41,0,0,1,.71.41,1.53,1.53,0,0,1,.44,1.36,2.81,2.81,0,0,1-.86,1.54,3,3,0,0,1-1.09.72,2.15,2.15,0,0,1-1.11.12,1.77,1.77,0,0,1-.91-.47l.9-.9a.92.92,0,0,0,.75.26,1.34,1.34,0,0,0,.78-.43,1.28,1.28,0,0,0,.41-.69A.58.58,0,0,0,540.9,213.61Z" transform="translate(-322.04 -197.53)"/><path class="cls-2" d="M546.18,210.56a2,2,0,0,1-.49-.28,2.18,2.18,0,0,1-2,2.19,1.55,1.55,0,0,1-1.26-.48,1.61,1.61,0,0,1-.52-1.49,3.35,3.35,0,0,1,1-1.75l.57-.57-.27-.27a1.06,1.06,0,0,0-.69-.33,1,1,0,0,0-.74.35,1.17,1.17,0,0,0-.36.68.69.69,0,0,0,.2.6l-.92.92a1.48,1.48,0,0,1-.41-.86,2,2,0,0,1,.15-1.07,3.18,3.18,0,0,1,.69-1,2.43,2.43,0,0,1,1.52-.79,1.83,1.83,0,0,1,1.46.58l1.85,1.85a3.06,3.06,0,0,0,1,.73l.07.06Zm-1.68.35a1.55,1.55,0,0,0,.39-.65,1.26,1.26,0,0,0,0-.72l-.77-.78-.5.5a1.91,1.91,0,0,0-.59,1,.8.8,0,0,0,.24.76.77.77,0,0,0,.6.25A1,1,0,0,0,544.5,210.91Z" transform="translate(-322.04 -197.53)"/><path class="cls-2" d="M545.69,206.88a3.4,3.4,0,0,1-1.08-2,2,2,0,0,1,.62-1.76,1.91,1.91,0,0,1,1.6-.62l-.37-.46.83-.83,4,4A2.31,2.31,0,0,1,552,207a2.69,2.69,0,0,1-.89,1.82,3.16,3.16,0,0,1-1.07.7,2.24,2.24,0,0,1-1.14.16l-.12-1a1.88,1.88,0,0,0,1.55-.54,1.45,1.45,0,0,0,.48-1,1.35,1.35,0,0,0-.47-1l-.27-.27a1.92,1.92,0,0,1-.62,1.5,2,2,0,0,1-1.75.61A3.52,3.52,0,0,1,545.69,206.88Zm1-.84a2.34,2.34,0,0,0,1.23.72,1.13,1.13,0,0,0,1.05-.34,1.27,1.27,0,0,0,.35-1.31l-1.81-1.81a1.25,1.25,0,0,0-1.29.36,1.13,1.13,0,0,0-.34,1.06A2.6,2.6,0,0,0,546.69,206Z" transform="translate(-322.04 -197.53)"/><path class="cls-2" d="M549.09,199.43l.5.45a2.12,2.12,0,0,1,.65-1.75c.86-.86,1.78-.8,2.78.16l2.71,2.72-.92.92-2.66-2.66a1.21,1.21,0,0,0-.75-.41,1,1,0,0,0-.74.36,1.28,1.28,0,0,0-.33,1.34l2.93,2.92-.93.93-4.11-4.11Z" transform="translate(-322.04 -197.53)"/><path class="cls-2" d="M443.91,273.93l-4-4,1.37-1.38a2.4,2.4,0,0,1,1.32-.76,1.35,1.35,0,0,1,1.17.46,1.27,1.27,0,0,1,.35.64,1.44,1.44,0,0,1-.1.78,1.28,1.28,0,0,1,.84-.17,1.36,1.36,0,0,1,.76.41,1.51,1.51,0,0,1,.51,1.23,2.19,2.19,0,0,1-.74,1.35Zm-1.63-3,.68-.69a1,1,0,0,0,.36-.66.69.69,0,0,0-.23-.6.74.74,0,0,0-.6-.26,1.26,1.26,0,0,0-.66.4l-.68.68Zm.51.51,1.26,1.26.77-.78a1.09,1.09,0,0,0,.36-.68.82.82,0,0,0-.27-.63.81.81,0,0,0-1.28,0Z" transform="translate(-322.04 -197.53)"/><path class="cls-2" d="M449.2,268.64a1.12,1.12,0,0,1-.36-.2,1.47,1.47,0,0,1-.45,1.12,1.5,1.5,0,0,1-1,.48,1.16,1.16,0,0,1-.92-.35,1.19,1.19,0,0,1-.38-1.09,2.45,2.45,0,0,1,.76-1.27l.41-.41-.19-.2a.81.81,0,0,0-.51-.24.71.71,0,0,0-.53.26.82.82,0,0,0-.26.49.51.51,0,0,0,.14.43l-.67.68a1.09,1.09,0,0,1-.29-.63,1.54,1.54,0,0,1,.1-.78,2.34,2.34,0,0,1,.51-.74,1.81,1.81,0,0,1,1.1-.58,1.34,1.34,0,0,1,1.06.42l1.35,1.35a2.13,2.13,0,0,0,.75.53l.05,0Zm-1.22.26a1.06,1.06,0,0,0,.27-.47.87.87,0,0,0,0-.53l-.57-.56-.36.36a1.41,1.41,0,0,0-.43.69.59.59,0,0,0,.18.56.56.56,0,0,0,.44.18A.75.75,0,0,0,448,268.9Z" transform="translate(-322.04 -197.53)"/><path class="cls-2" d="M448.11,263.76l.36.32a1.51,1.51,0,0,1,.47-1.27c.62-.62,1.3-.58,2,.12l2,2-.67.67-1.93-1.94a.87.87,0,0,0-.55-.3.77.77,0,0,0-.54.27.89.89,0,0,0-.23,1l2.12,2.13-.67.67-3-3Z" transform="translate(-322.04 -197.53)"/><path class="cls-2" d="M453.31,262v.61l1,1-.67.67L449.38,260l.67-.67,2.45,2.45-.06-.48-.1-1.75.8-.81.14,2.36,3,.51-.77.78Z" transform="translate(-322.04 -197.53)"/><circle class="cls-3" cx="158.84" cy="82.88" r="4.1"/><path class="cls-2" d="M509,269.52l0,1.29,1.73,1.72-1,1L504.26,268l1-1,2.59,2.6-.12-1.19-.32-3.56,1.16-1.16.4,4.51,5.25.9L513,270.24Z" transform="translate(-322.04 -197.53)"/><path class="cls-2" d="M512.34,266.76a3.25,3.25,0,0,1-.85-1.33,2.44,2.44,0,0,1-.07-1.41,2.67,2.67,0,0,1,.73-1.26,2.93,2.93,0,0,1,.87-.61l-.28-.81.55-.55.41,1.18a3,3,0,0,1,2.54,1,3.4,3.4,0,0,1,.85,1.32,2.43,2.43,0,0,1,.07,1.41,2.65,2.65,0,0,1-.74,1.26,3.37,3.37,0,0,1-.81.59l.29.83-.56.55L515,267.8A2.93,2.93,0,0,1,512.34,266.76Zm1-.84a2.5,2.5,0,0,0,1.21.72l-1.18-3.45a1.32,1.32,0,0,0-.48.31,1.21,1.21,0,0,0-.36,1.08A2.55,2.55,0,0,0,513.34,265.92Zm1.9-2.06a2.4,2.4,0,0,0-1.14-.7l1.16,3.41a1.44,1.44,0,0,0,.42-.29,1.23,1.23,0,0,0,.37-1.09A2.58,2.58,0,0,0,515.24,263.86Z" transform="translate(-322.04 -197.53)"/><path class="cls-2" d="M520.6,258.66a3.48,3.48,0,0,1,1.1,1.95,2,2,0,0,1-.61,1.74,1.9,1.9,0,0,1-1.65.6l.4.49-.83.84-5.84-5.84.92-.92,2.12,2.12a1.93,1.93,0,0,1,.61-1.55,2,2,0,0,1,1.74-.62,3.56,3.56,0,0,1,2,1.13Zm-1,.84a2.5,2.5,0,0,0-1.24-.77,1.13,1.13,0,0,0-1,.35,1.23,1.23,0,0,0-.32,1.37l1.7,1.69a1.22,1.22,0,0,0,1.38-.31,1.1,1.1,0,0,0,.35-1,2.37,2.37,0,0,0-.73-1.22Z" transform="translate(-322.04 -197.53)"/><circle class="cls-3" cx="185.13" cy="83.12" r="4.1"/><path class="cls-2" d="M536,272.48l-1,1-5.53-5.53,1-1Z" transform="translate(-322.04 -197.53)"/><path class="cls-2" d="M533.84,266.42l.5.45a2.1,2.1,0,0,1,.65-1.75c.85-.85,1.78-.8,2.77.17l2.72,2.71-.92.93-2.67-2.67a1.19,1.19,0,0,0-.74-.41,1,1,0,0,0-.74.37,1.23,1.23,0,0,0-.33,1.33l2.92,2.93-.92.92L533,267.29Z" transform="translate(-322.04 -197.53)"/><path class="cls-2" d="M539.16,265.15a3.46,3.46,0,0,1-1.08-2,2,2,0,0,1,.6-1.75,1.87,1.87,0,0,1,1.51-.6l-2.1-2.11.92-.92,5.84,5.83-.84.84-.47-.38a1.92,1.92,0,0,1-.6,1.61,2,2,0,0,1-1.75.58A3.56,3.56,0,0,1,539.16,265.15Zm1-.84a2.46,2.46,0,0,0,1.22.73,1.08,1.08,0,0,0,1-.33,1.21,1.21,0,0,0,.32-1.33L541,261.62a1.22,1.22,0,0,0-1.32.33,1.12,1.12,0,0,0-.33,1A2.71,2.71,0,0,0,540.16,264.31Z" transform="translate(-322.04 -197.53)"/><path class="cls-2" d="M546.13,262.35l-3.42-3.43-.63.63-.68-.69.63-.62-.38-.38a2,2,0,0,1-.68-1.43,2.07,2.07,0,0,1,.7-1.44,3.06,3.06,0,0,1,.58-.45l.7.75a3.26,3.26,0,0,0-.39.32.84.84,0,0,0,0,1.34l.37.37.83-.84.69.68-.84.84,3.43,3.42Z" transform="translate(-322.04 -197.53)"/><path class="cls-2" d="M549.55,258.93l-.92.93L542.79,254l.93-.92Z" transform="translate(-322.04 -197.53)"/><path class="cls-2" d="M550.67,255.17l-1.95-3.62,1-1,3.1,6.37a1.87,1.87,0,0,1-.24,2.31,2.71,2.71,0,0,1-.51.38l-.72-.72.19-.16a1.4,1.4,0,0,0,.4-.66,1.2,1.2,0,0,0-.15-.7l-.22-.49L546,254.25l1-1Z" transform="translate(-322.04 -197.53)"/><path class="cls-2" d="M550.39,247.88l1,1,.72-.73.69.68-.73.73,2.29,2.29a.74.74,0,0,0,.44.25.58.58,0,0,0,.43-.23,1.48,1.48,0,0,0,.29-.36l.71.72a3,3,0,0,1-.52.69,1.4,1.4,0,0,1-2.23-.11l-2.33-2.33-.68.68-.68-.69.67-.67-1-1Z" transform="translate(-322.04 -197.53)"/><path class="cls-2" d="M553.67,246.59l.5.45a2.12,2.12,0,0,1,.65-1.75c.86-.86,1.78-.8,2.78.16l2.71,2.72-.92.92-2.66-2.66A1.18,1.18,0,0,0,556,246a1,1,0,0,0-.74.36,1.28,1.28,0,0,0-.33,1.34l2.93,2.93-.93.92-4.11-4.11Z" transform="translate(-322.04 -197.53)"/><path class="cls-2" d="M556.08,242.05a.68.68,0,0,1-.22-.49.74.74,0,0,1,.24-.52.75.75,0,0,1,.53-.25.64.64,0,0,1,.49.22.66.66,0,0,1,.21.48.75.75,0,0,1-.25.53.7.7,0,0,1-.52.24A.66.66,0,0,1,556.08,242.05Zm6.15,4.2-.92.92-4.11-4.11.93-.92Z" transform="translate(-322.04 -197.53)"/><path class="cls-2" d="M560,240.28l.5.45a2.07,2.07,0,0,1,.64-1.75c.86-.86,1.78-.8,2.78.16l2.71,2.72-.92.92L563,240.12a1.18,1.18,0,0,0-.75-.41,1,1,0,0,0-.74.36,1.28,1.28,0,0,0-.33,1.34l2.93,2.92-.92.93-4.11-4.11Z" transform="translate(-322.04 -197.53)"/><path class="cls-2" d="M565.32,239a3.34,3.34,0,0,1-1.08-2,2,2,0,0,1,.62-1.76,1.94,1.94,0,0,1,1.6-.62l-.38-.45.84-.83,4,4a2.31,2.31,0,0,1,.77,1.78,2.67,2.67,0,0,1-.89,1.82,2.89,2.89,0,0,1-1.07.7,2.14,2.14,0,0,1-1.14.16l-.12-1a1.89,1.89,0,0,0,1.55-.54,1.43,1.43,0,0,0,.48-1,1.35,1.35,0,0,0-.47-1l-.27-.28a2,2,0,0,1-.62,1.51,2,2,0,0,1-1.76.6A3.44,3.44,0,0,1,565.32,239Zm1-.84a2.32,2.32,0,0,0,1.22.73,1.17,1.17,0,0,0,1.06-.35,1.26,1.26,0,0,0,.35-1.31l-1.81-1.8a1.25,1.25,0,0,0-1.29.35,1.14,1.14,0,0,0-.34,1.07A2.54,2.54,0,0,0,566.32,238.15Z" transform="translate(-322.04 -197.53)"/><path class="cls-2" d="M571.65,232.65a3.25,3.25,0,0,1-.85-1.33,2.44,2.44,0,0,1-.08-1.41,2.69,2.69,0,0,1,.74-1.26,2.54,2.54,0,0,1,1.88-.81,3,3,0,0,1,2,.86l.22.21a3.47,3.47,0,0,1,.85,1.32,2.43,2.43,0,0,1,.07,1.41,2.68,2.68,0,0,1-.74,1.27,2.55,2.55,0,0,1-2,.81,3.15,3.15,0,0,1-2.07-1Zm1-.84a2.39,2.39,0,0,0,1.25.73,1.22,1.22,0,0,0,1.09-.37,1.19,1.19,0,0,0,.36-1.09,2.56,2.56,0,0,0-.8-1.33,2.29,2.29,0,0,0-1.26-.72,1.27,1.27,0,0,0-1.45,1.44A2.51,2.51,0,0,0,572.65,231.81Z" transform="translate(-322.04 -197.53)"/><path class="cls-2" d="M576.09,228.22a3.45,3.45,0,0,1-1.08-2,2.05,2.05,0,0,1,.63-1.77,1.93,1.93,0,0,1,1.59-.61l-.37-.46.83-.83,4,4a2.36,2.36,0,0,1,.77,1.77,2.74,2.74,0,0,1-.89,1.83,3.08,3.08,0,0,1-1.07.69,2.19,2.19,0,0,1-1.15.17l-.12-1a1.88,1.88,0,0,0,1.56-.55,1.44,1.44,0,0,0,.47-1,1.36,1.36,0,0,0-.46-1l-.28-.28a1.92,1.92,0,0,1-.62,1.51,2,2,0,0,1-1.75.61A3.57,3.57,0,0,1,576.09,228.22Zm1-.84a2.34,2.34,0,0,0,1.23.72,1.15,1.15,0,0,0,1-.34,1.25,1.25,0,0,0,.35-1.31l-1.8-1.81a1.24,1.24,0,0,0-1.29.35,1.18,1.18,0,0,0-.35,1.07A2.6,2.6,0,0,0,577.09,227.38Z" transform="translate(-322.04 -197.53)"/><path class="cls-2" d="M582.43,221.88a3.4,3.4,0,0,1-1.09-2,2,2,0,0,1,.61-1.76,1.93,1.93,0,0,1,1.51-.6l-2.1-2.1.92-.93,5.83,5.84-.83.83-.47-.38a1.93,1.93,0,0,1-.61,1.61,2,2,0,0,1-1.75.59A3.55,3.55,0,0,1,582.43,221.88Zm1-.84a2.45,2.45,0,0,0,1.22.74,1.12,1.12,0,0,0,1-.34,1.24,1.24,0,0,0,.32-1.33l-1.76-1.75a1.2,1.2,0,0,0-1.31.32,1.13,1.13,0,0,0-.34,1A2.72,2.72,0,0,0,583.43,221Z" transform="translate(-322.04 -197.53)"/><path class="cls-2" d="M588,214a2.57,2.57,0,0,0-.4.34,1.18,1.18,0,0,0-.37,1.34l2.81,2.81-.93.93L585,215.3l.89-.88.48.43a1.47,1.47,0,0,1,.39-1.46,1.22,1.22,0,0,1,.38-.27Z" transform="translate(-322.04 -197.53)"/><path class="cls-2" d="M586.64,211.49a.64.64,0,0,1-.22-.49.72.72,0,0,1,.24-.52.75.75,0,0,1,.53-.25.68.68,0,0,1,.49.22.66.66,0,0,1,.21.48.73.73,0,0,1-.25.53.67.67,0,0,1-.52.24A.64.64,0,0,1,586.64,211.49Zm6.15,4.2-.92.92-4.11-4.11.92-.92Z" transform="translate(-322.04 -197.53)"/><path class="cls-2" d="M594.12,214.36l-3.42-3.43-.63.63-.68-.68.62-.63-.37-.38a2,2,0,0,1-.68-1.43,2.12,2.12,0,0,1,.69-1.44,2.75,2.75,0,0,1,.59-.44l.7.74a2.62,2.62,0,0,0-.39.32.84.84,0,0,0,0,1.34l.37.37.83-.84.68.69-.83.83,3.42,3.43Z" transform="translate(-322.04 -197.53)"/><path class="cls-2" d="M592.6,205.66l1,1,.73-.72.68.68-.72.73,2.29,2.29a.73.73,0,0,0,.43.25.65.65,0,0,0,.44-.23,1.93,1.93,0,0,0,.28-.36l.72.71a3.44,3.44,0,0,1-.52.7,1.41,1.41,0,0,1-2.24-.11l-2.33-2.33-.67.67-.69-.68.68-.68-1-1Z" transform="translate(-322.04 -197.53)"/><circle class="cls-3" cx="210.33" cy="83.12" r="4.1"/><circle class="cls-3" cx="68.04" cy="82.88" r="4.1"/><circle class="cls-3" cx="25.79" cy="82.88" r="4.1"/><circle class="cls-4" cx="120.41" cy="82.88" r="3.31"/><path class="cls-2" d="M457.86,269l4.24,1.92-1.92-4.24.9-.9,4,4-.69.69-1.33-1.32-1.7-1.84,1.91,4.28-.5.5-4.28-1.91,1.84,1.7,1.32,1.33-.69.69-4-4Z" transform="translate(-322.04 -197.53)"/><path class="cls-2" d="M467.65,267.26a1.36,1.36,0,0,1-.36-.2,1.47,1.47,0,0,1-.45,1.12,1.5,1.5,0,0,1-1,.48,1.2,1.2,0,0,1-.92-.35,1.22,1.22,0,0,1-.38-1.09,2.45,2.45,0,0,1,.76-1.27l.41-.42-.19-.19a.7.7,0,0,0-.5-.24.75.75,0,0,0-.54.25.88.88,0,0,0-.26.49.5.5,0,0,0,.15.44l-.67.67a1,1,0,0,1-.3-.62,1.55,1.55,0,0,1,.11-.78,2.1,2.1,0,0,1,.5-.75,1.76,1.76,0,0,1,1.1-.57,1.34,1.34,0,0,1,1.06.42l1.35,1.35a2.19,2.19,0,0,0,.76.53l0,.05Zm-1.22.26a1.22,1.22,0,0,0,.28-.48.92.92,0,0,0,0-.52l-.56-.56-.36.36a1.44,1.44,0,0,0-.44.69.62.62,0,0,0,.18.55.56.56,0,0,0,.44.18A.71.71,0,0,0,466.43,267.52Z" transform="translate(-322.04 -197.53)"/><path class="cls-2" d="M468.11,262.05a1.68,1.68,0,0,0-.29.25.86.86,0,0,0-.27,1l2,2.05-.67.67-3-3,.65-.64.35.32a1.06,1.06,0,0,1,.28-1.07,1.13,1.13,0,0,1,.28-.2Z" transform="translate(-322.04 -197.53)"/><path class="cls-2" d="M470.6,261.74v.61l1,1-.67.68-4.25-4.25.67-.67,2.45,2.45-.05-.47-.11-1.76.81-.81.14,2.36,3,.51-.78.78Z" transform="translate(-322.04 -197.53)"/><path class="cls-2" d="M475.24,259.78a2,2,0,0,1-1.44.64,2.1,2.1,0,0,1-1.47-.68l-.08-.08a2.66,2.66,0,0,1-.63-1,1.85,1.85,0,0,1-.06-1,1.94,1.94,0,0,1,.5-.89,1.67,1.67,0,0,1,1.33-.55,2.32,2.32,0,0,1,1.44.77l.27.27-2,1.95a1.24,1.24,0,0,0,.83.34,1,1,0,0,0,.76-.33,1.29,1.29,0,0,0,.38-1.12l.71,0a1.8,1.8,0,0,1-.07.89A2,2,0,0,1,475.24,259.78Zm-2.64-2.48a.82.82,0,0,0-.26.64,1.44,1.44,0,0,0,.33.76l1.27-1.28,0-.05a1.16,1.16,0,0,0-.69-.33A.8.8,0,0,0,472.6,257.3Z" transform="translate(-322.04 -197.53)"/><path class="cls-2" d="M475.26,256.62a2.55,2.55,0,0,1-.79-1.43,1.47,1.47,0,0,1,.44-1.28,1.35,1.35,0,0,1,1.1-.43l-1.53-1.54.67-.67,4.25,4.25-.61.6-.35-.27A1.38,1.38,0,0,1,478,257a1.41,1.41,0,0,1-1.27.42A2.59,2.59,0,0,1,475.26,256.62ZM476,256a1.73,1.73,0,0,0,.89.53.82.82,0,0,0,.75-.24.9.9,0,0,0,.23-1l-1.27-1.28a.91.91,0,0,0-1,.24.81.81,0,0,0-.24.76A1.93,1.93,0,0,0,476,256Z" transform="translate(-322.04 -197.53)"/><path class="cls-2" d="M481,252.33a.44.44,0,0,0-.42-.13,2.48,2.48,0,0,0-.66.33,3.88,3.88,0,0,1-.75.39,1.1,1.1,0,0,1-1.21-.2,1.15,1.15,0,0,1-.32-1,1.79,1.79,0,0,1,.57-1.09,2,2,0,0,1,1.13-.6,1.21,1.21,0,0,1,1,.36l-.67.67a.63.63,0,0,0-.47-.18.79.79,0,0,0-.51.26.83.83,0,0,0-.26.46.45.45,0,0,0,.14.41.36.36,0,0,0,.37.11,2.4,2.4,0,0,0,.69-.35,3.91,3.91,0,0,1,.83-.41,1.23,1.23,0,0,1,.62,0,1,1,0,0,1,.52.3,1.09,1.09,0,0,1,.32,1,2.07,2.07,0,0,1-.62,1.13,2.4,2.4,0,0,1-.79.52,1.53,1.53,0,0,1-.81.08A1.2,1.2,0,0,1,479,254l.65-.65a.68.68,0,0,0,.54.19,1,1,0,0,0,.57-.32.87.87,0,0,0,.3-.5A.42.42,0,0,0,481,252.33Z" transform="translate(-322.04 -197.53)"/><path class="cls-2" d="M482.2,248a1.68,1.68,0,0,0-.29.25.86.86,0,0,0-.27,1l2,2-.67.67-3-3,.65-.64.35.32a1.06,1.06,0,0,1,.28-1.07,1.13,1.13,0,0,1,.28-.2Z" transform="translate(-322.04 -197.53)"/><path class="cls-2" d="M486.37,248.65a2,2,0,0,1-1.43.63,2.08,2.08,0,0,1-1.47-.67l-.08-.09a2.53,2.53,0,0,1-.63-1,1.82,1.82,0,0,1-.06-1,1.77,1.77,0,0,1,.5-.89,1.65,1.65,0,0,1,1.33-.56,2.34,2.34,0,0,1,1.44.77l.27.27-2,1.95a1.28,1.28,0,0,0,.84.34,1,1,0,0,0,.76-.33,1.32,1.32,0,0,0,.38-1.12l.7,0a1.73,1.73,0,0,1-.06.9A2.18,2.18,0,0,1,486.37,248.65Zm-2.64-2.48a.82.82,0,0,0-.25.64,1.43,1.43,0,0,0,.32.75l1.28-1.28-.05-.05a1.16,1.16,0,0,0-.69-.33A.79.79,0,0,0,483.73,246.17Z" transform="translate(-322.04 -197.53)"/><path class="cls-2" d="M488.9,244.38a.42.42,0,0,0-.42-.12,2,2,0,0,0-.65.32,3.67,3.67,0,0,1-.76.39,1.07,1.07,0,0,1-1.21-.2,1.16,1.16,0,0,1-.32-1,1.91,1.91,0,0,1,.57-1.09,1.89,1.89,0,0,1,1.13-.6,1.21,1.21,0,0,1,1,.36l-.67.67a.58.58,0,0,0-.47-.18.73.73,0,0,0-.5.25.8.8,0,0,0-.26.47.45.45,0,0,0,.13.41.39.39,0,0,0,.37.11,2.72,2.72,0,0,0,.7-.35,3.39,3.39,0,0,1,.83-.42,1.22,1.22,0,0,1,.62,0,1.07,1.07,0,0,1,.52.3,1.12,1.12,0,0,1,.32,1,2.37,2.37,0,0,1-1.42,1.64,1.53,1.53,0,0,1-.81.09,1.31,1.31,0,0,1-.66-.34l.65-.66a.66.66,0,0,0,.55.19,1,1,0,0,0,.57-.31,1,1,0,0,0,.3-.5A.47.47,0,0,0,488.9,244.38Z" transform="translate(-322.04 -197.53)"/><path class="cls-2" d="M492.33,242.69a1.91,1.91,0,0,1-1.44.63,2,2,0,0,1-1.46-.67l-.09-.08a2.66,2.66,0,0,1-.62-1,1.92,1.92,0,0,1-.07-1,1.89,1.89,0,0,1,.5-.89,1.65,1.65,0,0,1,1.34-.55,2.28,2.28,0,0,1,1.43.76l.27.28-1.95,2a1.31,1.31,0,0,0,.83.34,1,1,0,0,0,.76-.33,1.28,1.28,0,0,0,.38-1.13h.71a1.61,1.61,0,0,1-.07.89A2.08,2.08,0,0,1,492.33,242.69Zm-2.64-2.48a.78.78,0,0,0-.25.64,1.41,1.41,0,0,0,.32.76l1.28-1.28-.05-.05a1.16,1.16,0,0,0-.69-.33A.78.78,0,0,0,489.69,240.21Z" transform="translate(-322.04 -197.53)"/><path class="cls-2" d="M495.78,239.13a1.53,1.53,0,0,1-.36-.2,1.47,1.47,0,0,1-.45,1.12,1.5,1.5,0,0,1-1,.48,1.18,1.18,0,0,1-.92-.36,1.2,1.2,0,0,1-.38-1.08,2.45,2.45,0,0,1,.76-1.27l.41-.42-.19-.19a.7.7,0,0,0-.5-.24.75.75,0,0,0-.54.25.88.88,0,0,0-.26.49.5.5,0,0,0,.15.44l-.67.67a1,1,0,0,1-.3-.62,1.44,1.44,0,0,1,.11-.78,2.1,2.1,0,0,1,.5-.75,1.76,1.76,0,0,1,1.1-.57,1.33,1.33,0,0,1,1.06.42l1.35,1.35a2.19,2.19,0,0,0,.76.53l.05,0Zm-1.22.25a1.11,1.11,0,0,0,.28-.47.92.92,0,0,0,0-.52l-.56-.56-.36.36a1.34,1.34,0,0,0-.43.69.59.59,0,0,0,.17.55.56.56,0,0,0,.44.18A.68.68,0,0,0,494.56,239.38Z" transform="translate(-322.04 -197.53)"/><path class="cls-2" d="M496.24,233.92a1.68,1.68,0,0,0-.29.25.86.86,0,0,0-.27,1l2,2.05-.67.67-3-3,.64-.64.35.32a1.06,1.06,0,0,1,.28-1.07,1.13,1.13,0,0,1,.28-.2Z" transform="translate(-322.04 -197.53)"/><path class="cls-2" d="M499.79,234.16a.85.85,0,0,0,.27-.56.74.74,0,0,0-.18-.54l.63-.64a1.5,1.5,0,0,1,.35.7,1.65,1.65,0,0,1-.06.82,2,2,0,0,1-.47.75,1.79,1.79,0,0,1-1.4.58,2.21,2.21,0,0,1-1.48-.75l-.07-.07a2.21,2.21,0,0,1-.73-1.46,1.78,1.78,0,0,1,.58-1.4,1.75,1.75,0,0,1,1.18-.56,1.6,1.6,0,0,1,1.17.47l-.63.63a.85.85,0,0,0-.6-.25.79.79,0,0,0-.58.25.84.84,0,0,0-.27.74,1.69,1.69,0,0,0,.54.9l.1.11a1.87,1.87,0,0,0,.9.55A.85.85,0,0,0,499.79,234.16Z" transform="translate(-322.04 -197.53)"/><path class="cls-2" d="M500,229.58a1.51,1.51,0,0,1,.45-1.21c.64-.64,1.33-.6,2.06.12l2,1.95-.67.68-1.93-1.93a.86.86,0,0,0-.57-.31.85.85,0,0,0-.53.27.9.9,0,0,0-.24,1l2.14,2.13-.67.68-4.25-4.25.67-.67Z" transform="translate(-322.04 -197.53)"/><circle class="cls-4" cx="137.47" cy="82.88" r="3.31"/><path class="cls-2" d="M412,273.93l-4-4,1.37-1.38a2.4,2.4,0,0,1,1.32-.76,1.35,1.35,0,0,1,1.17.46,1.27,1.27,0,0,1,.35.64,1.44,1.44,0,0,1-.1.78,1.28,1.28,0,0,1,.84-.17,1.36,1.36,0,0,1,.76.41,1.51,1.51,0,0,1,.51,1.23,2.19,2.19,0,0,1-.74,1.35Zm-1.63-3,.68-.69a1,1,0,0,0,.36-.66.69.69,0,0,0-.23-.6.74.74,0,0,0-.6-.26,1.26,1.26,0,0,0-.66.4l-.68.68Zm.51.51,1.26,1.26.77-.78a1.09,1.09,0,0,0,.36-.68.82.82,0,0,0-.27-.63.81.81,0,0,0-1.28,0Z" transform="translate(-322.04 -197.53)"/><path class="cls-2" d="M417,268.33a1.48,1.48,0,0,1-.49,1.18,1.33,1.33,0,0,1-1,.46,1.76,1.76,0,0,1-1.08-.58l-1.93-1.93.67-.67,1.93,1.92c.38.38.72.42,1,.1a1,1,0,0,0,.31-1l-2.15-2.15L415,265l3,3-.63.63Z" transform="translate(-322.04 -197.53)"/><path class="cls-2" d="M417,265.9a2.55,2.55,0,0,1-.79-1.43,1.49,1.49,0,0,1,.44-1.28,1.4,1.4,0,0,1,1.1-.44l-1.53-1.53.67-.67,4.25,4.24-.61.61-.34-.27a1.4,1.4,0,0,1-.44,1.16,1.44,1.44,0,0,1-1.27.43A2.62,2.62,0,0,1,417,265.9Zm.73-.62a1.72,1.72,0,0,0,.89.54.81.81,0,0,0,.75-.24.91.91,0,0,0,.24-1l-1.28-1.28a.86.86,0,0,0-.95.24.81.81,0,0,0-.25.76A2,2,0,0,0,417.72,265.28Z" transform="translate(-322.04 -197.53)"/><path class="cls-2" d="M420.19,262.69a2.47,2.47,0,0,1-.78-1.43,1.49,1.49,0,0,1,.45-1.29,1.41,1.41,0,0,1,1.16-.45l-.27-.33.61-.6,2.89,2.9a1.7,1.7,0,0,1,.57,1.29,2,2,0,0,1-.65,1.33,2.27,2.27,0,0,1-.78.5,1.57,1.57,0,0,1-.83.12l-.09-.72a1.33,1.33,0,0,0,1.13-.4,1,1,0,0,0,.35-.7,1,1,0,0,0-.34-.73l-.2-.2a1.43,1.43,0,0,1-.45,1.1,1.51,1.51,0,0,1-1.28.44A2.57,2.57,0,0,1,420.19,262.69Zm.73-.61a1.73,1.73,0,0,0,.89.53.83.83,0,0,0,.77-.25.9.9,0,0,0,.25-.95l-1.31-1.32a.91.91,0,0,0-.94.26.85.85,0,0,0-.25.78A1.91,1.91,0,0,0,420.92,262.08Z" transform="translate(-322.04 -197.53)"/><path class="cls-2" d="M426.41,259.63a2,2,0,0,1-1.44.63,2.08,2.08,0,0,1-1.47-.67l-.08-.09a2.53,2.53,0,0,1-.63-1,1.85,1.85,0,0,1,.44-1.93,1.67,1.67,0,0,1,1.33-.55,2.34,2.34,0,0,1,1.44.77l.27.27-2,2a1.28,1.28,0,0,0,.84.34,1,1,0,0,0,.76-.33,1.29,1.29,0,0,0,.38-1.12l.7,0a1.73,1.73,0,0,1-.06.9A2.27,2.27,0,0,1,426.41,259.63Zm-2.64-2.48a.79.79,0,0,0-.26.64,1.43,1.43,0,0,0,.32.75l1.28-1.28-.05-.05a1.16,1.16,0,0,0-.69-.33A.76.76,0,0,0,423.77,257.15Z" transform="translate(-322.04 -197.53)"/><path class="cls-2" d="M425.2,253.3l.72.72.53-.53.5.5-.53.53,1.67,1.67a.56.56,0,0,0,.31.18.46.46,0,0,0,.32-.17,1.33,1.33,0,0,0,.21-.26l.52.52a2.44,2.44,0,0,1-.38.5,1,1,0,0,1-1.63-.08l-1.69-1.69-.49.49-.5-.5.49-.49-.72-.72Z" transform="translate(-322.04 -197.53)"/><circle class="cls-4" cx="88.49" cy="82.88" r="3.31"/><path class="cls-2" d="M429.37,270.75l-1.56,1.55.61,1.27-.72.72-2.5-5.54.62-.62,5.55,2.5-.73.72Zm-1.92.8,1.16-1.17-2.25-1.09Z" transform="translate(-322.04 -197.53)"/><path class="cls-2" d="M430.11,268.84a2.45,2.45,0,0,1-.78-1.43,1.43,1.43,0,0,1,.44-1.27,1.35,1.35,0,0,1,1.1-.44l-1.53-1.53.67-.67,4.24,4.24-.61.61-.34-.28a1.38,1.38,0,0,1-.44,1.17,1.45,1.45,0,0,1-1.27.43A2.64,2.64,0,0,1,430.11,268.84Zm.73-.61a1.87,1.87,0,0,0,.89.54.82.82,0,0,0,.76-.25.89.89,0,0,0,.23-1l-1.28-1.27a.87.87,0,0,0-.95.23.84.84,0,0,0-.25.77A2.06,2.06,0,0,0,430.84,268.23Z" transform="translate(-322.04 -197.53)"/><path class="cls-2" d="M435.15,265.14l-1.5-2.77.69-.7,2,4-.58.58-4-1.94.69-.7Z" transform="translate(-322.04 -197.53)"/><path class="cls-2" d="M436.1,262.85a2.63,2.63,0,0,1-.62-1,1.82,1.82,0,0,1-.05-1,1.94,1.94,0,0,1,.53-.91,1.88,1.88,0,0,1,1.38-.59,2.12,2.12,0,0,1,1.44.62l.16.16a2.51,2.51,0,0,1,.62,1,1.78,1.78,0,0,1,.05,1,1.86,1.86,0,0,1-.54.92,1.83,1.83,0,0,1-1.43.59,2.24,2.24,0,0,1-1.51-.74Zm.73-.62a1.73,1.73,0,0,0,.91.54.91.91,0,0,0,.79-.27.88.88,0,0,0,.27-.8,1.89,1.89,0,0,0-.59-1,1.67,1.67,0,0,0-.91-.53.9.9,0,0,0-.8.27.88.88,0,0,0-.26.78A1.84,1.84,0,0,0,436.83,262.23Z" transform="translate(-322.04 -197.53)"/><path class="cls-2" d="M440.66,258.77v.61l1,1L441,261l-4.24-4.24.67-.67,2.45,2.44-.06-.47-.1-1.75.81-.81.13,2.36,3,.51-.77.78Z" transform="translate(-322.04 -197.53)"/><path class="cls-2" d="M445.71,256.28a1.12,1.12,0,0,1-.36-.2,1.47,1.47,0,0,1-.45,1.12,1.5,1.5,0,0,1-1,.48,1.16,1.16,0,0,1-.92-.35,1.19,1.19,0,0,1-.38-1.09,2.45,2.45,0,0,1,.76-1.27l.41-.41-.2-.2a.76.76,0,0,0-.5-.24.72.72,0,0,0-.53.26.82.82,0,0,0-.26.49.51.51,0,0,0,.14.43l-.67.67a1,1,0,0,1-.29-.62,1.54,1.54,0,0,1,.1-.78,2.24,2.24,0,0,1,.51-.74,1.81,1.81,0,0,1,1.1-.58,1.34,1.34,0,0,1,1.06.42l1.35,1.35a2.13,2.13,0,0,0,.75.53l.05,0Zm-1.22.26a1.06,1.06,0,0,0,.27-.47.87.87,0,0,0,0-.53l-.57-.56-.36.36a1.41,1.41,0,0,0-.43.69.6.6,0,0,0,.18.56.56.56,0,0,0,.44.18A.75.75,0,0,0,444.49,256.54Z" transform="translate(-322.04 -197.53)"/><path class="cls-2" d="M444.11,250.45l.72.73.53-.53.5.5-.53.53,1.67,1.67a.49.49,0,0,0,.31.17.4.4,0,0,0,.32-.16,1.71,1.71,0,0,0,.21-.26l.52.52a2.44,2.44,0,0,1-.38.5,1,1,0,0,1-1.63-.08l-1.69-1.69-.49.49-.5-.5.49-.49-.72-.73Z" transform="translate(-322.04 -197.53)"/><path class="cls-2" d="M446.86,249.8a1.52,1.52,0,0,1,.45-1.21c.64-.64,1.33-.6,2.06.12l2,2-.68.67-1.92-1.93a.8.8,0,0,0-.58-.3.76.76,0,0,0-.52.26.9.9,0,0,0-.24,1l2.13,2.14-.67.67-4.24-4.24.67-.68Z" transform="translate(-322.04 -197.53)"/><path class="cls-2" d="M448.21,246.25a.5.5,0,0,1-.16-.35.56.56,0,0,1,.18-.39.49.49,0,0,1,.74,0,.49.49,0,0,1,.15.35.53.53,0,0,1-.91.41Zm1.5.05,3.26,3.25a1.44,1.44,0,0,1,.47.93,1.24,1.24,0,0,1-.42.91,2,2,0,0,1-.41.31l-.53-.53a1.71,1.71,0,0,0,.26-.21.45.45,0,0,0,0-.71L449,247Z" transform="translate(-322.04 -197.53)"/><path class="cls-2" d="M456.59,245.51a1.92,1.92,0,0,1-1.52.64,1.65,1.65,0,0,1-.15.8,2.37,2.37,0,0,1-.55.78,1.55,1.55,0,0,1-1,.52,1.21,1.21,0,0,1-.95-.4,1.1,1.1,0,0,1-.34-1,2.31,2.31,0,0,1,.73-1.21l.53-.53-.2-.19a.73.73,0,0,0-.52-.26.69.69,0,0,0-.52.23.89.89,0,0,0-.28.53.5.5,0,0,0,.14.46l-.72.62a1.11,1.11,0,0,1-.31-1,2.13,2.13,0,0,1,.64-1.15,1.6,1.6,0,0,1,1.29-.55,1.9,1.9,0,0,1,1.82-1.84,2,2,0,0,1,1.33.68l.38.38-1.92,1.92a1.28,1.28,0,0,0,.84.36,1.07,1.07,0,0,0,.8-.36,2,2,0,0,0,.51-.83l.08-.26.66.25a2.23,2.23,0,0,1-.24.73A3.13,3.13,0,0,1,456.59,245.51Zm-2.6,1.58a1.13,1.13,0,0,0,.27-.43,1.38,1.38,0,0,0,.11-.51l-.58-.57-.54.54a1.05,1.05,0,0,0-.32.59.58.58,0,0,0,.16.49.52.52,0,0,0,.42.16A.79.79,0,0,0,454,247.09Zm-.05-4a.78.78,0,0,0-.26.63,1.33,1.33,0,0,0,.32.77l1.25-1.25-.08-.09a1.08,1.08,0,0,0-.64-.33A.76.76,0,0,0,453.94,243.05Z" transform="translate(-322.04 -197.53)"/><path class="cls-2" d="M458.91,243.08l-.67.67L454,239.51l.67-.67Z" transform="translate(-322.04 -197.53)"/><path class="cls-2" d="M460.79,238.27a2.44,2.44,0,0,1,.79,1.42,1.54,1.54,0,0,1-1.54,1.72l1.42,1.42-.67.67-4.14-4.14.62-.62.33.28a1.55,1.55,0,0,1,1.71-1.61,2.56,2.56,0,0,1,1.44.82Zm-.72.61a1.73,1.73,0,0,0-.89-.53.81.81,0,0,0-.77.24.87.87,0,0,0-.25.94l1.32,1.32a.88.88,0,0,0,.95-.25.82.82,0,0,0,.24-.76A1.93,1.93,0,0,0,460.07,238.88Z" transform="translate(-322.04 -197.53)"/><circle class="cls-4" cx="104.55" cy="82.88" r="3.31"/><path class="cls-2" d="M372.16,270.33a1.92,1.92,0,0,1-.18,1,3.43,3.43,0,0,1-.73,1,2.47,2.47,0,0,1-1.12.67,2.26,2.26,0,0,1-1.26-.06,3.16,3.16,0,0,1-1.22-.78l-.31-.31a3,3,0,0,1-1-1.86,2.15,2.15,0,0,1,.71-1.73,2.21,2.21,0,0,1,1.4-.73,2,2,0,0,1,1.43.48l-.69.68a1.07,1.07,0,0,0-1.56.12,1.15,1.15,0,0,0-.38,1.05,2.4,2.4,0,0,0,.74,1.24l.31.31a2.29,2.29,0,0,0,1.28.74,1.3,1.3,0,0,0,1.13-.4,1.44,1.44,0,0,0,.52-1l-.79-.79-.83.83-.53-.53,1.53-1.52Z" transform="translate(-322.04 -197.53)"/><path class="cls-2" d="M374.73,268.92a2,2,0,0,1-1.44.63,2.1,2.1,0,0,1-1.47-.68l-.08-.08a2.53,2.53,0,0,1-.63-1,1.85,1.85,0,0,1,.44-1.93,1.67,1.67,0,0,1,1.33-.55,2.34,2.34,0,0,1,1.44.77l.27.27-2,1.95a1.28,1.28,0,0,0,.84.34,1.06,1.06,0,0,0,.76-.33,1.29,1.29,0,0,0,.38-1.12l.7,0a1.73,1.73,0,0,1-.06.9A2.27,2.27,0,0,1,374.73,268.92Zm-2.65-2.48a.81.81,0,0,0-.25.63,1.42,1.42,0,0,0,.32.76l1.28-1.28-.05-.05a1.16,1.16,0,0,0-.69-.33A.79.79,0,0,0,372.08,266.44Z" transform="translate(-322.04 -197.53)"/><path class="cls-2" d="M374,263.56l.36.32a1.51,1.51,0,0,1,.47-1.27c.62-.62,1.29-.58,2,.12l2,2-.67.67-1.93-1.94a.9.9,0,0,0-.55-.3.74.74,0,0,0-.54.27.89.89,0,0,0-.23,1l2.12,2.13-.67.67-3-3Z" transform="translate(-322.04 -197.53)"/><path class="cls-2" d="M379.71,263.82l-2.49-2.5-.45.46-.5-.5.46-.45-.28-.28a1.47,1.47,0,0,1-.49-1,1.5,1.5,0,0,1,.5-1.05,2.53,2.53,0,0,1,.43-.32l.51.54a1.9,1.9,0,0,0-.28.24.6.6,0,0,0,0,1l.27.27.6-.61.5.5-.61.6,2.5,2.49Z" transform="translate(-322.04 -197.53)"/><path class="cls-2" d="M379.81,260.68a2.63,2.63,0,0,1-.62-1,1.73,1.73,0,0,1-.05-1,1.94,1.94,0,0,1,.53-.91,1.86,1.86,0,0,1,1.37-.59,2.17,2.17,0,0,1,1.45.62l.15.16a2.3,2.3,0,0,1,.62,1,1.78,1.78,0,0,1,.06,1,2,2,0,0,1-.54.92,1.83,1.83,0,0,1-1.44.59,2.24,2.24,0,0,1-1.5-.74Zm.73-.62a1.7,1.7,0,0,0,.91.54.91.91,0,0,0,.79-.27.84.84,0,0,0,.26-.8,1.86,1.86,0,0,0-.58-1A1.74,1.74,0,0,0,381,258a.92.92,0,0,0-.8.27.88.88,0,0,0-.26.78A1.84,1.84,0,0,0,380.54,260.06Z" transform="translate(-322.04 -197.53)"/><path class="cls-2" d="M383.84,254.94a2.34,2.34,0,0,0-.3.25.89.89,0,0,0-.27,1l2.05,2-.67.67-3-3,.64-.64.35.32a1.07,1.07,0,0,1,.28-1.06.92.92,0,0,1,.28-.2Z" transform="translate(-322.04 -197.53)"/><path class="cls-2" d="M384.61,253.6a1.47,1.47,0,0,1,.45-1.22c.63-.63,1.32-.59,2.06.13l1.95,2-.67.67-1.93-1.93a.8.8,0,0,0-.57-.3.76.76,0,0,0-.52.26.9.9,0,0,0-.24,1l2.13,2.14-.67.67-4.24-4.24L383,252Z" transform="translate(-322.04 -197.53)"/><path class="cls-2" d="M391.51,252a1.12,1.12,0,0,1-.36-.2,1.47,1.47,0,0,1-.45,1.12,1.5,1.5,0,0,1-1,.48,1.16,1.16,0,0,1-.92-.35,1.19,1.19,0,0,1-.38-1.09,2.45,2.45,0,0,1,.76-1.27l.41-.41-.19-.2a.81.81,0,0,0-.51-.24.73.73,0,0,0-.53.25.87.87,0,0,0-.26.5.51.51,0,0,0,.14.43l-.67.67a1.1,1.1,0,0,1-.3-.62,1.66,1.66,0,0,1,.11-.78,2.24,2.24,0,0,1,.51-.74A1.76,1.76,0,0,1,389,249a1.34,1.34,0,0,1,1.06.42l1.35,1.35a2.13,2.13,0,0,0,.75.53l.05.05Zm-1.22.26a1.06,1.06,0,0,0,.27-.47.87.87,0,0,0,0-.53l-.57-.56-.36.36a1.41,1.41,0,0,0-.43.69.6.6,0,0,0,.18.56.56.56,0,0,0,.44.18A.75.75,0,0,0,390.29,252.28Z" transform="translate(-322.04 -197.53)"/><path class="cls-2" d="M390.39,247.17l.36.32a1.53,1.53,0,0,1,.47-1.27c.62-.62,1.3-.58,2,.12l2,2-.68.68-1.93-1.94a.87.87,0,0,0-.55-.3.74.74,0,0,0-.54.27.91.91,0,0,0-.23,1l2.13,2.13-.68.67-3-3Z" transform="translate(-322.04 -197.53)"/><path class="cls-2" d="M394.23,246.27a2.49,2.49,0,0,1-.79-1.43,1.44,1.44,0,0,1,.44-1.28,1.38,1.38,0,0,1,1.1-.43l-1.53-1.54.67-.67,4.24,4.25-.6.6-.35-.27a1.38,1.38,0,0,1-.44,1.17,1.42,1.42,0,0,1-1.27.42A2.56,2.56,0,0,1,394.23,246.27Zm.73-.61a1.75,1.75,0,0,0,.88.53.84.84,0,0,0,.76-.24.9.9,0,0,0,.23-1l-1.27-1.28a.91.91,0,0,0-1,.24.79.79,0,0,0-.24.76A1.93,1.93,0,0,0,395,245.66Z" transform="translate(-322.04 -197.53)"/><path class="cls-2" d="M399.75,243.78l-.67.67-4.24-4.24.67-.67Z" transform="translate(-322.04 -197.53)"/><path class="cls-2" d="M396.69,239.31a.46.46,0,0,1-.16-.35.56.56,0,0,1,.18-.39.54.54,0,0,1,.38-.18.57.57,0,0,1,.36.16.49.49,0,0,1,.15.35.53.53,0,0,1-.91.41Zm4.48,3.05-.67.68-3-3,.67-.67Z" transform="translate(-322.04 -197.53)"/><path class="cls-2" d="M399.5,238.05l.37.33a1.49,1.49,0,0,1,.47-1.27c.62-.63,1.29-.59,2,.11l2,2-.67.67-1.94-1.94a.86.86,0,0,0-.54-.29.72.72,0,0,0-.54.26.92.92,0,0,0-.24,1l2.13,2.13-.67.67-3-3Z" transform="translate(-322.04 -197.53)"/><path class="cls-2" d="M403.35,237.14a2.47,2.47,0,0,1-.78-1.43,1.49,1.49,0,0,1,.45-1.29,1.41,1.41,0,0,1,1.16-.45l-.27-.33.6-.6,2.9,2.9a1.74,1.74,0,0,1,.57,1.29,2,2,0,0,1-.65,1.33,2.27,2.27,0,0,1-.78.5,1.6,1.6,0,0,1-.84.12l-.08-.72a1.33,1.33,0,0,0,1.13-.4,1,1,0,0,0,.34-.7,1,1,0,0,0-.33-.73l-.2-.2a1.4,1.4,0,0,1-.46,1.1,1.49,1.49,0,0,1-1.27.44A2.54,2.54,0,0,1,403.35,237.14Zm.73-.61a1.73,1.73,0,0,0,.89.53.83.83,0,0,0,.77-.25.92.92,0,0,0,.25-.95l-1.31-1.32a.91.91,0,0,0-.94.26.85.85,0,0,0-.25.78A1.91,1.91,0,0,0,404.08,236.53Z" transform="translate(-322.04 -197.53)"/><path class="cls-2" d="M410.08,234.14l-.53.53-2.78-5.95.53-.53Z" transform="translate(-322.04 -197.53)"/><path class="cls-2" d="M412.32,226.46a1.68,1.68,0,0,0-.29.25.86.86,0,0,0-.27,1l2,2-.67.67-3-3,.65-.64.35.31a1.05,1.05,0,0,1,.28-1.06,1.13,1.13,0,0,1,.28-.2Z" transform="translate(-322.04 -197.53)"/><path class="cls-2" d="M416.47,227.17a2,2,0,0,1-1.44.64,2.1,2.1,0,0,1-1.47-.68l-.08-.08a2.53,2.53,0,0,1-.63-1,1.84,1.84,0,0,1,.44-1.93,1.67,1.67,0,0,1,1.33-.55,2.34,2.34,0,0,1,1.44.77l.27.27-1.95,2a1.24,1.24,0,0,0,.83.34,1,1,0,0,0,.76-.33,1.29,1.29,0,0,0,.38-1.12l.7,0a1.68,1.68,0,0,1-.06.89A2,2,0,0,1,416.47,227.17Zm-2.64-2.48a.82.82,0,0,0-.26.64,1.44,1.44,0,0,0,.33.76l1.27-1.28-.05-.05a1.13,1.13,0,0,0-.69-.33A.78.78,0,0,0,413.83,224.69Z" transform="translate(-322.04 -197.53)"/><path class="cls-2" d="M419.26,221.34a2.55,2.55,0,0,1,.8,1.42,1.42,1.42,0,0,1-.45,1.27,1.39,1.39,0,0,1-1.19.44l.29.35-.61.61-4.24-4.24.67-.67,1.54,1.54a1.39,1.39,0,0,1,.44-1.13,1.46,1.46,0,0,1,1.26-.45,2.58,2.58,0,0,1,1.45.82Zm-.73.61a1.71,1.71,0,0,0-.9-.55.8.8,0,0,0-.74.25.87.87,0,0,0-.23,1l1.23,1.24a.9.9,0,0,0,1-.23.8.8,0,0,0,.25-.72,1.74,1.74,0,0,0-.53-.89Z" transform="translate(-322.04 -197.53)"/><path class="cls-2" d="M419.61,220.87a2.51,2.51,0,0,1-.62-1,1.81,1.81,0,0,1,.49-1.94,1.85,1.85,0,0,1,1.37-.6,2.18,2.18,0,0,1,1.44.63l.16.15a2.67,2.67,0,0,1,.62,1,1.82,1.82,0,0,1,.05,1,1.91,1.91,0,0,1-.54.92,1.83,1.83,0,0,1-1.43.59,2.24,2.24,0,0,1-1.5-.74Zm.73-.61a1.65,1.65,0,0,0,.91.53.95.95,0,0,0,1.06-1.06,2,2,0,0,0-.59-1,1.68,1.68,0,0,0-.91-.52.87.87,0,0,0-.8.27.89.89,0,0,0-.26.78A1.84,1.84,0,0,0,420.34,220.26Z" transform="translate(-322.04 -197.53)"/><path class="cls-2" d="M422.8,217.68a2.49,2.49,0,0,1-.61-1,1.82,1.82,0,0,1-.06-1,2.08,2.08,0,0,1,.54-.92,1.84,1.84,0,0,1,1.37-.59,2.18,2.18,0,0,1,1.44.63l.16.15a2.67,2.67,0,0,1,.62,1,1.73,1.73,0,0,1,.05,1,2,2,0,0,1-.54.92,1.83,1.83,0,0,1-1.43.59,2.33,2.33,0,0,1-1.5-.74Zm.73-.61a1.7,1.7,0,0,0,.92.53.86.86,0,0,0,.79-.27.88.88,0,0,0,.26-.79,1.87,1.87,0,0,0-.59-1,1.68,1.68,0,0,0-.91-.52.92.92,0,0,0-1.05,1A1.85,1.85,0,0,0,423.53,217.07Z" transform="translate(-322.04 -197.53)"/><path class="cls-2" d="M424.77,211.33l.73.73.52-.53.5.5-.53.52,1.67,1.67a.48.48,0,0,0,.32.18.43.43,0,0,0,.31-.16,1.39,1.39,0,0,0,.21-.27l.52.52a2.26,2.26,0,0,1-.38.51,1,1,0,0,1-1.62-.08l-1.7-1.7-.49.5-.5-.5.5-.49-.73-.73Z" transform="translate(-322.04 -197.53)"/><path class="cls-2" d="M428.94,212.23a2.13,2.13,0,0,1-.5-.68,2.16,2.16,0,0,1-.11-.84,3.71,3.71,0,0,0,0-.71.87.87,0,0,0-.25-.47.74.74,0,0,0-.52-.27.68.68,0,0,0-.52.24.77.77,0,0,0-.25.52.69.69,0,0,0,.22.5l-.67.67a1.4,1.4,0,0,1-.44-1.1,1.8,1.8,0,0,1,.58-1.15,1.76,1.76,0,0,1,1.15-.59,1.43,1.43,0,0,1,1.1.48,1.83,1.83,0,0,1,.46,1.31v.67a1.31,1.31,0,0,0,.42.79Zm.81.91a.5.5,0,0,1-.16-.37.54.54,0,0,1,.18-.38.53.53,0,0,1,.38-.17.48.48,0,0,1,.36.16.49.49,0,0,1,0,.73.52.52,0,0,1-.38.18A.49.49,0,0,1,429.75,213.14Z" transform="translate(-322.04 -197.53)"/><circle class="cls-4" cx="47.09" cy="82.88" r="3.31"/><path class="cls-2" d="M325.73,271l0,.94,1.25,1.25-.7.7-4-4,.7-.7,1.89,1.89-.1-.87-.23-2.58.85-.85.28,3.28,3.82.66-.82.83Z" transform="translate(-322.04 -197.53)"/><path class="cls-2" d="M328.14,269.07a2.5,2.5,0,0,1-.62-1,1.74,1.74,0,0,1,0-1,1.89,1.89,0,0,1,.53-.91,2.16,2.16,0,0,1,.63-.45l-.2-.59.4-.4.3.86a2.18,2.18,0,0,1,1.84.76,2.55,2.55,0,0,1,.62,1,1.82,1.82,0,0,1,.06,1,2.08,2.08,0,0,1-.54.92,2.44,2.44,0,0,1-.59.42l.2.61-.4.4-.29-.86A2.16,2.16,0,0,1,328.14,269.07Zm.73-.62a1.82,1.82,0,0,0,.87.53l-.85-2.51a.92.92,0,0,0-.61,1A1.78,1.78,0,0,0,328.87,268.45Zm1.38-1.5a1.76,1.76,0,0,0-.83-.5l.84,2.48a.93.93,0,0,0,.31-.22.85.85,0,0,0,.26-.79A1.92,1.92,0,0,0,330.25,267Z" transform="translate(-322.04 -197.53)"/><path class="cls-2" d="M332.15,263.35a2.21,2.21,0,0,0-.3.25.89.89,0,0,0-.27,1l2.05,2.05-.67.67-3-3,.64-.64.35.31a1.06,1.06,0,0,1,.29-1.06.94.94,0,0,1,.27-.2Z" transform="translate(-322.04 -197.53)"/><path class="cls-2" d="M336.29,264.06a2,2,0,0,1-1.43.64,2.06,2.06,0,0,1-1.47-.68l-.08-.08a2.53,2.53,0,0,1-.63-1,2,2,0,0,1-.07-1,1.87,1.87,0,0,1,.51-.89,1.66,1.66,0,0,1,1.33-.55,2.3,2.3,0,0,1,1.43.77l.27.27-1.95,2a1.27,1.27,0,0,0,.83.34,1,1,0,0,0,.76-.33,1.26,1.26,0,0,0,.38-1.12l.71,0a1.68,1.68,0,0,1-.06.89A2.14,2.14,0,0,1,336.29,264.06Zm-2.64-2.48a.81.81,0,0,0-.25.64,1.35,1.35,0,0,0,.32.76L335,261.7l-.05-.05a1.16,1.16,0,0,0-.69-.33A.82.82,0,0,0,333.65,261.58Z" transform="translate(-322.04 -197.53)"/><path class="cls-2" d="M339.08,258.24a2.47,2.47,0,0,1,.79,1.42,1.44,1.44,0,0,1-.43,1.26,1.46,1.46,0,0,1-1.11.46l1.42,1.42-.67.67-4.14-4.14.62-.62.33.28a1.41,1.41,0,0,1,.44-1.17,1.48,1.48,0,0,1,1.27-.45,2.62,2.62,0,0,1,1.44.82Zm-.73.61a1.67,1.67,0,0,0-.88-.53.82.82,0,0,0-.78.24.9.9,0,0,0-.25.93l1.33,1.33a.87.87,0,0,0,.94-.25.81.81,0,0,0,.25-.76A2,2,0,0,0,338.35,258.85Z" transform="translate(-322.04 -197.53)"/><path class="cls-2" d="M341.8,258.45l-.67.67-4.25-4.24.68-.68Z" transform="translate(-322.04 -197.53)"/><path class="cls-2" d="M344.29,256a1.73,1.73,0,0,1-.36-.2,1.49,1.49,0,0,1-.45,1.12,1.44,1.44,0,0,1-1,.47,1.13,1.13,0,0,1-.92-.35,1.19,1.19,0,0,1-.38-1.09,2.48,2.48,0,0,1,.76-1.27l.41-.41-.19-.19a.77.77,0,0,0-.51-.25.74.74,0,0,0-.53.26.85.85,0,0,0-.26.49.54.54,0,0,0,.14.44l-.67.67a1.1,1.1,0,0,1-.3-.62,1.66,1.66,0,0,1,.11-.78,2.27,2.27,0,0,1,.51-.75,1.74,1.74,0,0,1,1.1-.57,1.34,1.34,0,0,1,1.06.42l1.35,1.35a2.26,2.26,0,0,0,.75.53l.05,0Zm-1.22.25a1.06,1.06,0,0,0,.27-.47.84.84,0,0,0,0-.52l-.57-.57-.36.37a1.41,1.41,0,0,0-.43.69.58.58,0,0,0,.18.55.55.55,0,0,0,.44.18A.7.7,0,0,0,343.07,256.21Z" transform="translate(-322.04 -197.53)"/><path class="cls-2" d="M343.17,251.1l.36.33a1.53,1.53,0,0,1,.47-1.27c.62-.63,1.3-.59,2,.12l2,2-.68.67L345.39,251a.9.9,0,0,0-.55-.29.76.76,0,0,0-.54.26.92.92,0,0,0-.23,1l2.12,2.13-.67.67-3-3Z" transform="translate(-322.04 -197.53)"/><circle class="cls-5" cx="3.81" cy="82.88" r="3.31"/></svg>